<svg width="40" height="24" viewBox="0 0 40 24" fill="#27B088" xmlns="http://www.w3.org/2000/svg">
<path d="M0 24L9.38762 12L1.14611e-07 0L20.3226 9.75918e-08L10.935 12L20.3226 24H0ZM10.1441 10.9655L17.7436 1.27586L2.57902 1.27586L10.1441 10.9655ZM17.7436 22.7241L10.1441 13.0345L2.57902 22.7241H17.7436Z" fill="#27B088"/>
<path d="M40 24H21.603V1.0374e-07L30.9219 1.48491e-07C32.9163 1.58068e-07 34.5439 0.356322 35.8048 1.06897C37.0427 1.75862 38.0056 2.70115 38.6933 3.89655C39.381 5.09195 39.7249 6.41379 39.7249 7.86207C39.7249 9.65517 39.1747 11.2644 38.0743 12.6897C36.974 14.092 35.587 15.023 33.9135 15.4828L40 24ZM23.7694 1.27586L33.1226 14.3793C34.6586 14.0575 35.9309 13.2874 36.9396 12.069C37.9482 10.8506 38.4526 9.44828 38.4526 7.86207C38.4526 6.5977 38.1431 5.44828 37.5241 4.41379C36.9052 3.37931 36.034 2.58621 34.9107 2.03448C33.9021 1.52874 32.5839 1.27586 30.9563 1.27586L23.7694 1.27586ZM22.8753 2.10345V14.4828H31.7128L22.8753 2.10345ZM22.8753 22.7241H37.5929L32.5724 15.7241L31.5064 15.7586H22.8753V22.7241Z" fill="#27B088"/>
</svg>
