<svg width="36" height="35" viewBox="0 0 36 35" fill="none" xmlns="http://www.w3.org/2000/svg">
<path fill-rule="evenodd" clip-rule="evenodd" d="M6 20.0001H30C30.7879 20.0001 31.5681 19.8449 32.2961 19.5434C33.0241 19.2418 33.6855 18.7999 34.2426 18.2427C34.7998 17.6856 35.2417 17.0241 35.5433 16.2962C35.8448 15.5682 36 14.788 36 14.0001C36 13.2121 35.8448 12.4319 35.5433 11.704C35.2417 10.976 34.7998 10.3146 34.2426 9.75743C33.6855 9.20028 33.0241 8.75832 32.2961 8.45679C31.5681 8.15527 30.7879 8.00007 30 8.00007C28.72 8.00007 27.652 7.07807 27.128 5.91007C26.3397 4.14825 25.0584 2.6522 23.4387 1.60246C21.819 0.552715 19.9301 -0.00585938 18 -0.00585938C16.0699 -0.00585938 14.181 0.552715 12.5613 1.60246C10.9416 2.6522 9.66028 4.14825 8.872 5.91007C8.348 7.07807 7.28 8.00007 6 8.00007C4.4087 8.00007 2.88258 8.63221 1.75736 9.75743C0.632141 10.8826 0 12.4088 0 14.0001C0 15.5914 0.632141 17.1175 1.75736 18.2427C2.88258 19.3679 4.4087 20.0001 6 20.0001Z" fill="#43D9AD"/>
<path d="M18 30V26V30ZM28 32V26V32ZM8 34V26V34Z" fill="#43D9AD"/>
<path d="M18 30V26M28 32V26M8 34V26" stroke="#EEEEEE" stroke-width="2" stroke-linecap="round"/>
</svg>
