<svg width="48" height="48" viewBox="0 0 48 48" fill="none" xmlns="http://www.w3.org/2000/svg">
<path fill-rule="evenodd" clip-rule="evenodd" d="M21.493 20.43C22.855 15.436 24.224 10.415 25.341 5.35302C25.585 4.24702 25.32 2.89302 24.026 2.41202C23.804 2.32868 23.5503 2.24868 23.265 2.17202C22.837 2.05602 22.72 2.03902 22.485 1.99902C21.125 1.76902 20.219 2.80902 19.877 3.88902C18.307 8.85002 16.977 13.903 15.655 18.929L15.635 19.002C15.7083 19 15.7813 18.9993 15.854 19C17.997 19 19.884 19.529 21.493 20.43ZM27 28C27 27.4696 27.2107 26.9609 27.5857 26.5858C27.9608 26.2107 28.4695 26 29 26H39C39.5304 26 40.0391 26.2107 40.4142 26.5858C40.7892 26.9609 41 27.4696 41 28C41 28.5305 40.7892 29.0392 40.4142 29.4142C40.0391 29.7893 39.5304 30 39 30H29C28.4695 30 27.9608 29.7893 27.5857 29.4142C27.2107 29.0392 27 28.5305 27 28ZM32 34C31.4695 34 30.9608 34.2107 30.5857 34.5858C30.2107 34.9609 30 35.4696 30 36C30 36.5304 30.2107 37.0392 30.5857 37.4142C30.9608 37.7893 31.4695 38 32 38H42C42.5304 38 43.0391 37.7893 43.4142 37.4142C43.7892 37.0392 44 36.5304 44 36C44 35.4696 43.7892 34.9609 43.4142 34.5858C43.0391 34.2107 42.5304 34 42 34H32ZM35 42C34.4695 42 33.9608 42.2107 33.5857 42.5858C33.2107 42.9609 33 43.4696 33 44C33 44.5304 33.2107 45.0392 33.5857 45.4142C33.9608 45.7893 34.4695 46 35 46H45C45.5304 46 46.0391 45.7893 46.4142 45.4142C46.7892 45.0392 47 44.5304 47 44C47 43.4696 46.7892 42.9609 46.4142 42.5858C46.0391 42.2107 45.5304 42 45 42H35ZM15.854 21.5C9.80996 21.5 5.21396 26.027 3.73496 31.568C2.84996 34.888 1.97096 38.805 1.63896 42.29C1.41596 44.633 3.15096 46.564 5.37496 46.824C6.41696 46.946 7.72296 47.083 9.18396 47.201C7.47896 43.534 7.36596 39.645 7.58196 37.824C7.63353 37.4331 7.83696 37.0782 8.14821 36.8362C8.45946 36.5941 8.85351 36.4843 9.24509 36.5306C9.63666 36.5768 9.99428 36.7754 10.2405 37.0834C10.4868 37.3913 10.6019 37.7838 10.561 38.176C10.357 39.902 10.557 44.085 12.725 47.425C13.795 47.472 14.897 47.5 16 47.5C17.1 47.5 18.254 47.472 19.412 47.425C18.273 45.798 17.59 44.032 17.178 42.52C16.8961 41.4843 16.6982 40.4275 16.586 39.36C16.5428 38.9468 16.5148 38.5322 16.502 38.117L16.5 38.037V38C16.5139 37.6117 16.6779 37.2438 16.9575 36.9739C17.237 36.704 17.6104 36.553 17.999 36.5528C18.3876 36.5525 18.7612 36.703 19.0411 36.9725C19.321 37.2421 19.4855 37.6097 19.5 37.998V38.05L19.508 38.252C19.517 38.434 19.534 38.706 19.57 39.047C19.642 39.731 19.786 40.68 20.072 41.73C20.585 43.612 21.519 45.689 23.188 47.216C24.036 47.158 24.856 47.096 25.625 47.031C29.165 46.739 30.576 42.482 28.106 40.058L27 38.973C26.463 38.4463 26.0398 37.815 25.7565 37.1182C25.4733 36.4215 25.3359 35.674 25.353 34.922L25.41 32.352C25.531 26.871 21.823 21.5 15.854 21.5Z" fill="#43D9AD"/>
</svg>
