<svg width="48" height="48" viewBox="0 0 48 48" fill="none" xmlns="http://www.w3.org/2000/svg">
<path fill-rule="evenodd" clip-rule="evenodd" d="M24 5.57159C21.4354 5.57159 19.2206 7.06988 18.1886 9.25045C18.0507 9.54212 17.8488 9.7989 17.5979 10.0016C17.347 10.2044 17.0535 10.3479 16.7394 10.4214C16.4253 10.4949 16.0986 10.4965 15.7838 10.4261C15.469 10.3558 15.1741 10.2153 14.9212 10.015C14.331 9.54889 13.6379 9.2307 12.8998 9.08701C12.1616 8.94333 11.3998 8.97832 10.6779 9.18907C9.95603 9.39981 9.29503 9.78019 8.75012 10.2985C8.20521 10.8167 7.79218 11.4578 7.54553 12.1682C7.29888 12.8787 7.22577 13.6378 7.33229 14.3822C7.43881 15.1266 7.72188 15.8348 8.15785 16.4475C8.59383 17.0603 9.17007 17.5598 9.83846 17.9045C10.5068 18.2491 11.248 18.4289 12 18.4287C12.5683 18.4287 13.1134 18.6545 13.5152 19.0564C13.9171 19.4582 14.1429 20.0033 14.1429 20.5716C14.1429 21.1399 13.9171 21.685 13.5152 22.0868C13.1134 22.4887 12.5683 22.7144 12 22.7144C10.6656 22.7138 9.34804 22.4165 8.1427 21.844C6.93736 21.2714 5.87442 20.438 5.03083 19.4041C4.18724 18.3702 3.58411 17.1616 3.26512 15.8659C2.94612 14.5702 2.91924 13.2198 3.18643 11.9124C3.45361 10.605 4.00817 9.37342 4.80995 8.30676C5.61173 7.24009 6.64067 6.36506 7.82227 5.74503C9.00387 5.12499 10.3086 4.77546 11.6419 4.72174C12.9752 4.66803 14.3038 4.91147 15.5314 5.43445C16.532 4.14121 17.8155 3.09431 19.2835 2.37405C20.7515 1.65379 22.3649 1.2793 24 1.2793C25.6351 1.2793 27.2486 1.65379 28.7165 2.37405C30.1845 3.09431 31.468 4.14121 32.4686 5.43445C33.6962 4.91147 35.0248 4.66803 36.3581 4.72174C37.6914 4.77546 38.9961 5.12499 40.1777 5.74503C41.3593 6.36506 42.3883 7.24009 43.1901 8.30676C43.9918 9.37342 44.5464 10.605 44.8136 11.9124C45.0808 13.2198 45.0539 14.5702 44.7349 15.8659C44.4159 17.1616 43.8128 18.3702 42.9692 19.4041C42.1256 20.438 41.0626 21.2714 39.8573 21.844C38.652 22.4165 37.3344 22.7138 36 22.7144C35.4317 22.7144 34.8866 22.4887 34.4848 22.0868C34.0829 21.685 33.8572 21.1399 33.8572 20.5716C33.8572 20.0033 34.0829 19.4582 34.4848 19.0564C34.8866 18.6545 35.4317 18.4287 36 18.4287C36.752 18.4289 37.4932 18.2491 38.1616 17.9045C38.8299 17.5598 39.4062 17.0603 39.8422 16.4475C40.2781 15.8348 40.5612 15.1266 40.6677 14.3822C40.7742 13.6378 40.7011 12.8787 40.4545 12.1682C40.2078 11.4578 39.7948 10.8167 39.2499 10.2985C38.705 9.78019 38.044 9.39981 37.3221 9.18907C36.6002 8.97832 35.8384 8.94333 35.1002 9.08701C34.3621 9.2307 33.669 9.54889 33.0789 10.015C32.826 10.2146 32.5314 10.3546 32.2169 10.4246C31.9025 10.4946 31.5763 10.4928 31.2626 10.4193C30.949 10.3458 30.6559 10.2026 30.4053 10.0002C30.1546 9.79784 29.9528 9.54157 29.8149 9.25045C29.2921 8.15057 28.4685 7.22128 27.4394 6.5702C26.4103 5.91911 25.2178 5.57288 24 5.57159ZM13.7143 29.143C13.7143 28.6884 13.8949 28.2523 14.2164 27.9308C14.5379 27.6093 14.9739 27.4287 15.4286 27.4287H16.7143V17.143C16.7143 16.5747 16.9401 16.0297 17.3419 15.6278C17.7438 15.2259 18.2888 15.0002 18.8572 15.0002C19.4255 15.0002 19.9705 15.2259 20.3724 15.6278C20.7742 16.0297 21 16.5747 21 17.143V27.4287H27V17.143C27 16.5747 27.2258 16.0297 27.6276 15.6278C28.0295 15.2259 28.5745 15.0002 29.1429 15.0002C29.7112 15.0002 30.2562 15.2259 30.6581 15.6278C31.06 16.0297 31.2857 16.5747 31.2857 17.143V27.4287H32.5714C33.0261 27.4287 33.4621 27.6093 33.7836 27.9308C34.1051 28.2523 34.2857 28.6884 34.2857 29.143C34.2857 33.5247 36.8572 36.9499 39.6892 39.3842C41.3529 40.8014 43.1906 42.0008 45.1577 42.9533L45.24 42.991L45.2571 42.9979C45.6197 43.1545 45.917 43.4314 46.0989 43.7819C46.2808 44.1325 46.3361 44.535 46.2555 44.9216C46.1749 45.3082 45.9633 45.6551 45.6564 45.9036C45.3496 46.1522 44.9663 46.2872 44.5714 46.2859H3.42858C3.0351 46.2854 2.65376 46.1496 2.34856 45.9012C2.04337 45.6529 1.8329 45.3071 1.75249 44.9219C1.67208 44.5368 1.72662 44.1356 1.90695 43.7859C2.08729 43.4362 2.38244 43.1592 2.74287 43.0013L2.76001 42.991L2.84229 42.9567L3.18515 42.7922C5.02521 41.8657 6.74727 40.7215 8.31429 39.3842C11.1394 36.9499 13.7143 33.5247 13.7143 29.143Z" fill="#43D9AD"/>
</svg>
